<svg data-v-1084b650="" xmlns="http://www.w3.org/2000/svg" viewBox="0 0 300 300"><!----> <!----> <rect data-v-1084b650="" fill="#FFFFFF" x="0" y="0" width="300px" height="300px" class="logo-background-square"></rect> <!----> <!----> <g data-v-1084b650="" id="77b2da8b-aca0-9389-2d23-b993c649a2d3" fill="#14acc2" stroke="none" transform="matrix(0.8499999999999999,0,0,0.8499999999999999,28.782932662963887,24.472288322448748)"><svg xmlns="http://www.w3.org/2000/svg" viewBox="0 0 100 100"><path d="M72.409 36.021h-8.468c.693-6.266-1.801-13.822-6.667-18.11-3.188-2.81-12.003-8.098-24.937 3.437-4.062 3.622-7.309 3.749-8.724 2.271-1.676-1.748-1.338-5.788 2.589-9.833a4 4 0 1 0-5.74-5.572c-7.498 7.725-6.995 16.382-2.624 20.942 4.075 4.25 11.786 5.331 19.823-1.837 4.124-3.679 9.956-7.256 14.323-3.406 3.392 2.989 4.583 8.76 3.88 12.108H42.91a8 8 0 0 0-8 8v39.458a8 8 0 0 0 8 8h29.499a8 8 0 0 0 8-8V44.021a8 8 0 0 0-8-8zm0 47.458H42.91V44.021h29.499v39.458z"></path><circle cx="51.659" cy="52.167" r="4"></circle><circle cx="63.659" cy="52.167" r="4"></circle></svg></g></svg>