<svg data-v-5f19e91b="" xmlns="http://www.w3.org/2000/svg" width="788" height="80" viewBox="0 0 788 80"><!----> <!----> <!----> <g data-v-5f19e91b="" id="b353c652-2dd6-ae56-3c2c-a72fb2bb1306" fill="black" transform="matrix(5.628517904206723,0,0,5.628517904206723,74.35820690386407,-22.35361256824897)"><path d="M8.96 16.19L2.63 6.56L2.63 16.19L1.31 16.19L1.31 5.69L3.50 5.69L9.62 14.88L15.74 5.69L17.83 5.69L17.83 16.19L16.52 16.19L16.52 6.71L10.28 16.19L8.96 16.19ZM19.80 12.20L19.80 12.20L19.80 12.20Q19.80 10.99 20.06 10.19L20.06 10.19L20.06 10.19Q20.32 9.40 20.89 8.93L20.89 8.93L20.89 8.93Q21.46 8.47 22.38 8.28L22.38 8.28L22.38 8.28Q23.30 8.09 24.61 8.09L24.61 8.09L24.61 8.09Q25.92 8.09 26.84 8.28L26.84 8.28L26.84 8.28Q27.75 8.47 28.33 8.93L28.33 8.93L28.33 8.93Q28.90 9.40 29.16 10.19L29.16 10.19L29.16 10.19Q29.42 10.99 29.42 12.20L29.42 12.20L29.42 12.20Q29.42 13.41 29.16 14.21L29.16 14.21L29.16 14.21Q28.90 15.00 28.33 15.48L28.33 15.48L28.33 15.48Q27.75 15.95 26.84 16.14L26.84 16.14L26.84 16.14Q25.92 16.34 24.61 16.34L24.61 16.34L24.61 16.34Q23.30 16.34 22.38 16.14L22.38 16.14L22.38 16.14Q21.46 15.95 20.89 15.48L20.89 15.48L20.89 15.48Q20.32 15.00 20.06 14.21L20.06 14.21L20.06 14.21Q19.80 13.41 19.80 12.20ZM21.11 12.20L21.11 12.20L21.11 12.20Q21.11 12.85 21.16 13.34L21.16 13.34L21.16 13.34Q21.21 13.82 21.34 14.17L21.34 14.17L21.34 14.17Q21.47 14.52 21.71 14.74L21.71 14.74L21.71 14.74Q21.95 14.96 22.34 15.09L22.34 15.09L22.34 15.09Q22.73 15.22 23.29 15.26L23.29 15.26L23.29 15.26Q23.84 15.31 24.61 15.31L24.61 15.31L24.61 15.31Q25.27 15.31 25.78 15.28L25.78 15.28L25.78 15.28Q26.30 15.25 26.68 15.14L26.68 15.14L26.68 15.14Q27.07 15.03 27.34 14.83L27.34 14.83L27.34 14.83Q27.62 14.63 27.78 14.28L27.78 14.28L27.78 14.28Q27.95 13.93 28.03 13.42L28.03 13.42L28.03 13.42Q28.11 12.91 28.11 12.20L28.11 12.20L28.11 12.20Q28.11 11.49 28.03 11.00L28.03 11.00L28.03 11.00Q27.95 10.50 27.78 10.17L27.78 10.17L27.78 10.17Q27.62 9.83 27.34 9.64L27.34 9.64L27.34 9.64Q27.07 9.44 26.68 9.34L26.68 9.34L26.68 9.34Q26.30 9.24 25.78 9.21L25.78 9.21L25.78 9.21Q25.27 9.19 24.61 9.19L24.61 9.19L24.61 9.19Q23.95 9.19 23.44 9.21L23.44 9.21L23.44 9.21Q22.92 9.24 22.53 9.34L22.53 9.34L22.53 9.34Q22.15 9.44 21.88 9.64L21.88 9.64L21.88 9.64Q21.60 9.83 21.43 10.17L21.43 10.17L21.43 10.17Q21.27 10.50 21.19 11.00L21.19 11.00L21.19 11.00Q21.11 11.49 21.11 12.20ZM30.96 8.31L32.27 8.31L32.27 12.69L32.27 12.69Q32.27 13.42 32.38 13.92L32.38 13.92L32.38 13.92Q32.49 14.42 32.82 14.73L32.82 14.73L32.82 14.73Q33.15 15.04 33.75 15.18L33.75 15.18L33.75 15.18Q34.35 15.31 35.33 15.31L35.33 15.31L35.33 15.31Q36.40 15.31 37.08 15.16L37.08 15.16L37.08 15.16Q37.76 15.00 38.15 14.71L38.15 14.71L38.15 14.71Q38.54 14.42 38.69 14.02L38.69 14.02L38.69 14.02Q38.83 13.62 38.83 13.13L38.83 13.13L38.83 8.31L40.15 8.31L40.15 16.19L38.83 16.19L38.83 14.88L38.83 14.88Q38.74 15.09 38.51 15.34L38.51 15.34L38.51 15.34Q38.29 15.60 37.84 15.82L37.84 15.82L37.84 15.82Q37.39 16.04 36.67 16.19L36.67 16.19L36.67 16.19Q35.96 16.34 34.90 16.34L34.90 16.34L34.90 16.34Q34.02 16.34 33.38 16.23L33.38 16.23L33.38 16.23Q32.75 16.13 32.31 15.92L32.31 15.92L32.31 15.92Q31.87 15.71 31.60 15.40L31.60 15.40L31.60 15.40Q31.34 15.09 31.19 14.69L31.19 14.69L31.19 14.69Q31.05 14.28 31.00 13.78L31.00 13.78L31.00 13.78Q30.95 13.28 30.95 12.69L30.95 12.69L30.96 8.31ZM46.49 12.60L46.49 12.60L46.49 12.60Q47.26 12.60 47.80 12.62L47.80 12.62L47.80 12.62Q48.34 12.65 48.70 12.70L48.70 12.70L48.70 12.70Q49.07 12.76 49.28 12.85L49.28 12.85L49.28 12.85Q49.49 12.94 49.60 13.11L49.60 13.11L49.60 13.11Q49.71 13.29 49.74 13.46L49.74 13.46L49.74 13.46Q49.77 13.64 49.77 13.86L49.77 13.86L49.77 13.86Q49.77 14.11 49.74 14.31L49.74 14.31L49.74 14.31Q49.71 14.51 49.59 14.68L49.59 14.68L49.59 14.68Q49.48 14.84 49.25 14.96L49.25 14.96L49.25 14.96Q49.03 15.07 48.64 15.16L48.64 15.16L48.64 15.16Q48.25 15.24 47.67 15.27L47.67 15.27L47.67 15.27Q47.09 15.31 46.27 15.31L46.27 15.31L46.27 15.31Q45.37 15.31 44.78 15.26L44.78 15.26L44.78 15.26Q44.19 15.21 43.84 15.07L43.84 15.07L43.84 15.07Q43.49 14.92 43.35 14.67L43.35 14.67L43.35 14.67Q43.21 14.41 43.21 14L43.21 14L41.90 14L41.90 14Q41.90 14.62 42.12 15.05L42.12 15.05L42.12 15.05Q42.34 15.48 42.85 15.75L42.85 15.75L42.85 15.75Q43.37 16.02 44.20 16.15L44.20 16.15L44.20 16.15Q45.04 16.27 46.27 16.27L46.27 16.27L46.27 16.27Q47.26 16.27 48.00 16.21L48.00 16.21L48.00 16.21Q48.74 16.15 49.27 16.03L49.27 16.03L49.27 16.03Q49.81 15.91 50.16 15.72L50.16 15.72L50.16 15.72Q50.51 15.52 50.72 15.25L50.72 15.25L50.72 15.25Q50.92 14.98 51.00 14.63L51.00 14.63L51.00 14.63Q51.08 14.28 51.08 13.84L51.08 13.84L51.08 13.84Q51.08 13.39 51.00 13.05L51.00 13.05L51.00 13.05Q50.92 12.71 50.72 12.47L50.72 12.47L50.72 12.47Q50.52 12.22 50.18 12.00L50.18 12.00L50.18 12.00Q49.85 11.79 49.33 11.69L49.33 11.69L49.33 11.69Q48.82 11.59 48.12 11.55L48.12 11.55L48.12 11.55Q47.42 11.50 46.49 11.50L46.49 11.50L46.49 11.50Q45.73 11.50 45.19 11.50L45.19 11.50L45.19 11.50Q44.65 11.50 44.28 11.46L44.28 11.46L44.28 11.46Q43.91 11.42 43.70 11.35L43.70 11.35L43.70 11.35Q43.49 11.27 43.38 11.13L43.38 11.13L43.38 11.13Q43.27 10.99 43.24 10.76L43.24 10.76L43.24 10.76Q43.21 10.54 43.21 10.31L43.21 10.31L43.21 10.31Q43.21 9.91 43.39 9.69L43.39 9.69L43.39 9.69Q43.57 9.46 43.98 9.35L43.98 9.35L43.98 9.35Q44.39 9.24 45.06 9.21L45.06 9.21L45.06 9.21Q45.73 9.19 46.71 9.19L46.71 9.19L46.71 9.19Q47.61 9.19 48.20 9.24L48.20 9.24L48.20 9.24Q48.79 9.29 49.14 9.42L49.14 9.42L49.14 9.42Q49.49 9.56 49.63 9.79L49.63 9.79L49.63 9.79Q49.77 10.02 49.77 10.39L49.77 10.39L51.08 10.39L51.08 10.39Q51.08 9.80 50.89 9.37L50.89 9.37L50.89 9.37Q50.69 8.93 50.19 8.65L50.19 8.65L50.19 8.65Q49.70 8.37 48.85 8.23L48.85 8.23L48.85 8.23Q48.01 8.09 46.71 8.09L46.71 8.09L46.71 8.09Q45.40 8.09 44.48 8.21L44.48 8.21L44.48 8.21Q43.57 8.33 42.99 8.59L42.99 8.59L42.99 8.59Q42.42 8.85 42.16 9.27L42.16 9.27L42.16 9.27Q41.90 9.69 41.90 10.31L41.90 10.31L41.90 10.31Q41.90 10.76 41.98 11.15L41.98 11.15L41.98 11.15Q42.06 11.53 42.26 11.80L42.26 11.80L42.26 11.80Q42.46 12.06 42.80 12.22L42.80 12.22L42.80 12.22Q43.13 12.37 43.64 12.46L43.64 12.46L43.64 12.46Q44.15 12.54 44.86 12.57L44.86 12.57L44.86 12.57Q45.56 12.60 46.49 12.60ZM57.43 16.34L57.43 16.34L57.43 16.34Q56.12 16.34 55.20 16.16L55.20 16.16L55.20 16.16Q54.28 15.98 53.71 15.53L53.71 15.53L53.71 15.53Q53.14 15.09 52.88 14.34L52.88 14.34L52.88 14.34Q52.62 13.60 52.62 12.47L52.62 12.47L52.62 12.47Q52.62 11.18 52.88 10.33L52.88 10.33L52.88 10.33Q53.14 9.49 53.71 8.99L53.71 8.99L53.71 8.99Q54.28 8.49 55.20 8.29L55.20 8.29L55.20 8.29Q56.12 8.09 57.43 8.09L57.43 8.09L57.43 8.09Q58.37 8.09 59.05 8.23L59.05 8.23L59.05 8.23Q59.74 8.37 60.23 8.63L60.23 8.63L60.23 8.63Q60.72 8.89 61.02 9.26L61.02 9.26L61.02 9.26Q61.33 9.63 61.50 10.03L61.50 10.03L61.50 10.03Q61.67 10.44 61.74 10.99L61.74 10.99L61.74 10.99Q61.80 11.53 61.80 12.14L61.80 12.14L61.69 12.58L53.93 12.58L53.93 12.58Q53.93 13.48 54.11 14.06L54.11 14.06L54.11 14.06Q54.28 14.64 54.69 14.90L54.69 14.90L54.69 14.90Q55.10 15.17 55.77 15.24L55.77 15.24L55.77 15.24Q56.44 15.31 57.43 15.31L57.43 15.31L57.43 15.31Q58.33 15.31 58.92 15.26L58.92 15.26L58.92 15.26Q59.51 15.21 59.86 15.07L59.86 15.07L59.86 15.07Q60.21 14.92 60.35 14.67L60.35 14.67L60.35 14.67Q60.49 14.41 60.49 14L60.49 14L61.80 14L61.80 14Q61.80 14.64 61.58 15.08L61.58 15.08L61.58 15.08Q61.36 15.53 60.85 15.81L60.85 15.81L60.85 15.81Q60.33 16.08 59.50 16.21L59.50 16.21L59.50 16.21Q58.66 16.34 57.43 16.34ZM57.43 9.19L57.43 9.19L57.43 9.19Q56.77 9.19 56.26 9.21L56.26 9.21L56.26 9.21Q55.74 9.24 55.35 9.33L55.35 9.33L55.35 9.33Q54.97 9.43 54.69 9.60L54.69 9.60L54.69 9.60Q54.42 9.78 54.25 10.01L54.25 10.01L54.25 10.01Q54.09 10.25 54.01 10.67L54.01 10.67L54.01 10.67Q53.93 11.10 53.93 11.70L53.93 11.70L60.49 11.70L60.49 11.70Q60.49 10.90 60.32 10.45L60.32 10.45L60.32 10.45Q60.15 9.99 59.78 9.70L59.78 9.70L59.78 9.70Q59.41 9.41 58.83 9.30L58.83 9.30L58.83 9.30Q58.25 9.19 57.43 9.19ZM71.43 10.88L70.33 10.88L70.33 10.88Q70.33 10.38 70.26 10.06L70.26 10.06L70.26 10.06Q70.19 9.73 69.92 9.54L69.92 9.54L69.92 9.54Q69.66 9.34 69.14 9.27L69.14 9.27L69.14 9.27Q68.61 9.19 67.71 9.19L67.71 9.19L67.71 9.19Q66.83 9.19 66.27 9.34L66.27 9.34L66.27 9.34Q65.72 9.50 65.41 9.78L65.41 9.78L65.41 9.78Q65.09 10.06 64.98 10.45L64.98 10.45L64.98 10.45Q64.87 10.83 64.87 11.31L64.87 11.31L64.87 16.19L63.55 16.19L63.55 8.31L64.87 8.31L64.87 9.56L64.87 9.56Q64.93 9.35 65.12 9.10L65.12 9.10L65.12 9.10Q65.30 8.84 65.68 8.62L65.68 8.62L65.68 8.62Q66.06 8.39 66.65 8.24L66.65 8.24L66.65 8.24Q67.25 8.09 68.15 8.09L68.15 8.09L68.15 8.09Q69.17 8.09 69.82 8.27L69.82 8.27L69.82 8.27Q70.46 8.46 70.82 8.81L70.82 8.81L70.82 8.81Q71.18 9.16 71.30 9.68L71.30 9.68L71.30 9.68Q71.43 10.20 71.43 10.88L71.43 10.88ZM80.61 16.19L72.74 16.19L72.74 5.69L81.50 5.69L81.50 5.69Q82.48 5.69 83.08 5.85L83.08 5.85L83.08 5.85Q83.69 6.01 84.01 6.32L84.01 6.32L84.01 6.32Q84.33 6.63 84.44 7.10L84.44 7.10L84.44 7.10Q84.55 7.56 84.55 8.16L84.55 8.16L84.55 8.16Q84.55 8.60 84.48 8.93L84.48 8.93L84.48 8.93Q84.40 9.27 84.28 9.52L84.28 9.52L84.28 9.52Q84.16 9.76 84 9.93L84 9.93L84 9.93Q83.84 10.10 83.68 10.21L83.68 10.21L83.68 10.21Q83.30 10.47 82.80 10.50L82.80 10.50L82.80 10.50Q83.42 10.53 83.90 10.80L83.90 10.80L83.90 10.80Q84.10 10.92 84.30 11.09L84.30 11.09L84.30 11.09Q84.49 11.27 84.65 11.52L84.65 11.52L84.65 11.52Q84.80 11.78 84.90 12.12L84.90 12.12L84.90 12.12Q84.99 12.47 84.99 12.92L84.99 12.92L84.99 12.92Q84.99 13.47 84.94 13.92L84.94 13.92L84.94 13.92Q84.89 14.38 84.73 14.74L84.73 14.74L84.73 14.74Q84.57 15.10 84.28 15.37L84.28 15.37L84.28 15.37Q83.99 15.65 83.50 15.83L83.50 15.83L83.50 15.83Q83.01 16.01 82.30 16.10L82.30 16.10L82.30 16.10Q81.59 16.19 80.61 16.19L80.61 16.19ZM74.05 15.09L80.17 15.09L80.17 15.09Q80.94 15.09 81.50 15.07L81.50 15.07L81.50 15.07Q82.06 15.05 82.45 14.97L82.45 14.97L82.45 14.97Q82.84 14.89 83.08 14.74L83.08 14.74L83.08 14.74Q83.32 14.59 83.45 14.35L83.45 14.35L83.45 14.35Q83.58 14.11 83.63 13.76L83.63 13.76L83.63 13.76Q83.68 13.41 83.68 12.92L83.68 12.92L83.68 12.92Q83.68 12.54 83.63 12.25L83.63 12.25L83.63 12.25Q83.58 11.97 83.45 11.77L83.45 11.77L83.45 11.77Q83.32 11.58 83.08 11.46L83.08 11.46L83.08 11.46Q82.84 11.34 82.45 11.27L82.45 11.27L82.45 11.27Q82.06 11.20 81.50 11.18L81.50 11.18L81.50 11.18Q80.94 11.16 80.17 11.16L80.17 11.16L74.05 11.16L74.05 15.09ZM74.05 10.06L80.17 10.06L80.17 10.06Q80.84 10.06 81.33 10.04L81.33 10.04L81.33 10.04Q81.81 10.01 82.15 9.93L82.15 9.93L82.15 9.93Q82.50 9.86 82.71 9.72L82.71 9.72L82.71 9.72Q82.92 9.59 83.04 9.38L83.04 9.38L83.04 9.38Q83.16 9.17 83.20 8.87L83.20 8.87L83.20 8.87Q83.24 8.57 83.24 8.16L83.24 8.16L83.24 8.16Q83.24 7.72 83.15 7.45L83.15 7.45L83.15 7.45Q83.05 7.18 82.80 7.03L82.80 7.03L82.80 7.03Q82.56 6.88 82.14 6.83L82.14 6.83L82.14 6.83Q81.72 6.78 81.06 6.78L81.06 6.78L74.05 6.78L74.05 10.06ZM86.52 12.20L86.52 12.20L86.52 12.20Q86.52 10.99 86.78 10.19L86.78 10.19L86.78 10.19Q87.04 9.40 87.62 8.93L87.62 8.93L87.62 8.93Q88.19 8.47 89.11 8.28L89.11 8.28L89.11 8.28Q90.02 8.09 91.33 8.09L91.33 8.09L91.33 8.09Q92.65 8.09 93.56 8.28L93.56 8.28L93.56 8.28Q94.48 8.47 95.05 8.93L95.05 8.93L95.05 8.93Q95.63 9.40 95.89 10.19L95.89 10.19L95.89 10.19Q96.15 10.99 96.15 12.20L96.15 12.20L96.15 12.20Q96.15 13.41 95.89 14.21L95.89 14.21L95.89 14.21Q95.63 15.00 95.05 15.48L95.05 15.48L95.05 15.48Q94.48 15.95 93.56 16.14L93.56 16.14L93.56 16.14Q92.65 16.34 91.33 16.34L91.33 16.34L91.33 16.34Q90.02 16.34 89.11 16.14L89.11 16.14L89.11 16.14Q88.19 15.95 87.62 15.48L87.62 15.48L87.62 15.48Q87.04 15.00 86.78 14.21L86.78 14.21L86.78 14.21Q86.52 13.41 86.52 12.20ZM87.83 12.20L87.83 12.20L87.83 12.20Q87.83 12.85 87.88 13.34L87.88 13.34L87.88 13.34Q87.93 13.82 88.06 14.17L88.06 14.17L88.06 14.17Q88.20 14.52 88.44 14.74L88.44 14.74L88.44 14.74Q88.68 14.96 89.07 15.09L89.07 15.09L89.07 15.09Q89.46 15.22 90.01 15.26L90.01 15.26L90.01 15.26Q90.57 15.31 91.33 15.31L91.33 15.31L91.33 15.31Q91.99 15.31 92.51 15.28L92.51 15.28L92.51 15.28Q93.02 15.25 93.41 15.14L93.41 15.14L93.41 15.14Q93.80 15.03 94.07 14.83L94.07 14.83L94.07 14.83Q94.34 14.63 94.51 14.28L94.51 14.28L94.51 14.28Q94.68 13.93 94.76 13.42L94.76 13.42L94.76 13.42Q94.83 12.91 94.83 12.20L94.83 12.20L94.83 12.20Q94.83 11.49 94.76 11.00L94.76 11.00L94.76 11.00Q94.68 10.50 94.51 10.17L94.51 10.17L94.51 10.17Q94.34 9.83 94.07 9.64L94.07 9.64L94.07 9.64Q93.80 9.44 93.41 9.34L93.41 9.34L93.41 9.34Q93.02 9.24 92.51 9.21L92.51 9.21L92.51 9.21Q91.99 9.19 91.33 9.19L91.33 9.19L91.33 9.19Q90.68 9.19 90.16 9.21L90.16 9.21L90.16 9.21Q89.65 9.24 89.26 9.34L89.26 9.34L89.26 9.34Q88.87 9.44 88.60 9.64L88.60 9.64L88.60 9.64Q88.33 9.83 88.16 10.17L88.16 10.17L88.16 10.17Q87.99 10.50 87.91 11.00L87.91 11.00L87.91 11.00Q87.83 11.49 87.83 12.20ZM105.52 16.19L105.52 15.11L105.52 15.11Q105.50 15.19 105.21 15.52L105.21 15.52L105.21 15.52Q105.01 15.76 104.67 15.95L104.67 15.95L104.67 15.95Q104.32 16.14 103.75 16.25L103.75 16.25L103.75 16.25Q103.18 16.35 102.25 16.35L102.25 16.35L102.25 16.35Q101.01 16.35 100.14 16.23L100.14 16.23L100.14 16.23Q99.26 16.10 98.71 15.84L98.71 15.84L98.71 15.84Q98.16 15.57 97.90 15.16L97.90 15.16L97.90 15.16Q97.64 14.75 97.64 14.18L97.64 14.18L97.64 14.18Q97.64 13.59 97.78 13.18L97.78 13.18L97.78 13.18Q97.92 12.76 98.19 12.48L98.19 12.48L98.19 12.48Q98.46 12.20 98.85 12.04L98.85 12.04L98.85 12.04Q99.23 11.89 99.72 11.81L99.72 11.81L99.72 11.81Q100.21 11.72 100.79 11.70L100.79 11.70L100.79 11.70Q101.37 11.68 102.03 11.68L102.03 11.68L102.03 11.68Q102.96 11.68 103.59 11.76L103.59 11.76L103.59 11.76Q104.22 11.84 104.62 11.96L104.62 11.96L104.62 11.96Q105.02 12.08 105.23 12.22L105.23 12.22L105.23 12.22Q105.43 12.35 105.52 12.47L105.52 12.47L105.52 12.47Q105.52 11.70 105.45 11.16L105.45 11.16L105.45 11.16Q105.39 10.62 105.24 10.26L105.24 10.26L105.24 10.26Q105.10 9.90 104.86 9.68L104.86 9.68L104.86 9.68Q104.63 9.47 104.29 9.36L104.29 9.36L104.29 9.36Q103.95 9.25 103.50 9.22L103.50 9.22L103.50 9.22Q103.05 9.19 102.47 9.19L102.47 9.19L102.47 9.19Q101.57 9.19 100.97 9.23L100.97 9.23L100.97 9.23Q100.38 9.28 100.03 9.41L100.03 9.41L100.03 9.41Q99.68 9.54 99.54 9.77L99.54 9.77L99.54 9.77Q99.39 9.99 99.39 10.36L99.39 10.36L98.08 10.36L98.08 10.36Q98.08 9.74 98.30 9.31L98.30 9.31L98.30 9.31Q98.53 8.88 99.04 8.61L99.04 8.61L99.04 8.61Q99.56 8.34 100.40 8.22L100.40 8.22L100.40 8.22Q101.24 8.09 102.47 8.09L102.47 8.09L102.47 8.09Q103.67 8.09 104.51 8.29L104.51 8.29L104.51 8.29Q105.34 8.49 105.86 8.99L105.86 8.99L105.86 8.99Q106.37 9.49 106.60 10.33L106.60 10.33L106.60 10.33Q106.83 11.18 106.83 12.47L106.83 12.47L106.83 16.19L105.52 16.19ZM102.47 15.31L102.47 15.31L102.47 15.31Q103.34 15.31 103.92 15.23L103.92 15.23L103.92 15.23Q104.51 15.15 104.86 14.98L104.86 14.98L104.86 14.98Q105.22 14.82 105.37 14.57L105.37 14.57L105.37 14.57Q105.52 14.33 105.52 14L105.52 14L105.52 14Q105.52 13.67 105.35 13.44L105.35 13.44L105.35 13.44Q105.17 13.21 104.76 13.07L104.76 13.07L104.76 13.07Q104.36 12.93 103.69 12.86L103.69 12.86L103.69 12.86Q103.02 12.80 102.03 12.80L102.03 12.80L102.03 12.80Q101.05 12.80 100.44 12.83L100.44 12.83L100.44 12.83Q99.84 12.87 99.51 12.99L99.51 12.99L99.51 12.99Q99.18 13.11 99.07 13.35L99.07 13.35L99.07 13.35Q98.96 13.59 98.96 14L98.96 14L98.96 14Q98.96 14.41 99.08 14.67L99.08 14.67L99.08 14.67Q99.20 14.92 99.57 15.07L99.57 15.07L99.57 15.07Q99.93 15.21 100.63 15.26L100.63 15.26L100.63 15.26Q101.32 15.31 102.47 15.31ZM116.46 10.88L115.36 10.88L115.36 10.88Q115.36 10.38 115.29 10.06L115.29 10.06L115.29 10.06Q115.22 9.73 114.95 9.54L114.95 9.54L114.95 9.54Q114.69 9.34 114.16 9.27L114.16 9.27L114.16 9.27Q113.64 9.19 112.74 9.19L112.74 9.19L112.74 9.19Q111.86 9.19 111.30 9.34L111.30 9.34L111.30 9.34Q110.75 9.50 110.43 9.78L110.43 9.78L110.43 9.78Q110.12 10.06 110.01 10.45L110.01 10.45L110.01 10.45Q109.89 10.83 109.89 11.31L109.89 11.31L109.89 16.19L108.58 16.19L108.58 8.31L109.89 8.31L109.89 9.56L109.89 9.56Q109.96 9.35 110.15 9.10L110.15 9.10L110.15 9.10Q110.33 8.84 110.71 8.62L110.71 8.62L110.71 8.62Q111.08 8.39 111.68 8.24L111.68 8.24L111.68 8.24Q112.28 8.09 113.18 8.09L113.18 8.09L113.18 8.09Q114.20 8.09 114.84 8.27L114.84 8.27L114.84 8.27Q115.49 8.46 115.85 8.81L115.85 8.81L115.85 8.81Q116.20 9.16 116.33 9.68L116.33 9.68L116.33 9.68Q116.46 10.20 116.46 10.88L116.46 10.88ZM121.93 16.34L121.93 16.34L121.93 16.34Q120.61 16.34 119.70 16.15L119.70 16.15L119.70 16.15Q118.78 15.96 118.21 15.49L118.21 15.49L118.21 15.49Q117.63 15.03 117.37 14.24L117.37 14.24L117.37 14.24Q117.11 13.45 117.11 12.26L117.11 12.26L117.11 12.26Q117.11 11.03 117.37 10.23L117.37 10.23L117.37 10.23Q117.63 9.42 118.21 8.95L118.21 8.95L118.21 8.95Q118.78 8.48 119.70 8.29L119.70 8.29L119.70 8.29Q120.61 8.09 121.93 8.09L121.93 8.09L121.93 8.09Q122.86 8.09 123.48 8.19L123.48 8.19L123.48 8.19Q124.11 8.29 124.51 8.43L124.51 8.43L124.51 8.43Q124.91 8.57 125.12 8.74L125.12 8.74L125.12 8.74Q125.33 8.91 125.43 9.05L125.43 9.05L125.43 5.69L126.74 5.69L126.74 16.19L125.43 16.19L125.43 15.02L125.43 15.02Q125.43 15.02 125.10 15.41L125.10 15.41L125.10 15.41Q124.81 15.69 124.46 15.86L124.46 15.86L124.46 15.86Q124.11 16.03 123.48 16.18L123.48 16.18L123.48 16.18Q122.86 16.34 121.93 16.34ZM121.93 15.31L121.93 15.31L121.93 15.31Q122.58 15.31 123.09 15.28L123.09 15.28L123.09 15.28Q123.61 15.25 124.00 15.15L124.00 15.15L124.00 15.15Q124.39 15.05 124.66 14.84L124.66 14.84L124.66 14.84Q124.93 14.64 125.10 14.31L125.10 14.31L125.10 14.31Q125.27 13.97 125.35 13.48L125.35 13.48L125.35 13.48Q125.43 12.98 125.43 12.28L125.43 12.28L125.43 12.28Q125.43 11.56 125.35 11.05L125.35 11.05L125.35 11.05Q125.27 10.54 125.10 10.20L125.10 10.20L125.10 10.20Q124.93 9.85 124.66 9.65L124.66 9.65L124.66 9.65Q124.39 9.45 124.00 9.35L124.00 9.35L124.00 9.35Q123.61 9.24 123.09 9.21L123.09 9.21L123.09 9.21Q122.58 9.19 121.93 9.19L121.93 9.19L121.93 9.19Q121.16 9.19 120.60 9.24L120.60 9.24L120.60 9.24Q120.05 9.28 119.66 9.41L119.66 9.41L119.66 9.41Q119.27 9.53 119.02 9.75L119.02 9.75L119.02 9.75Q118.78 9.97 118.65 10.31L118.65 10.31L118.65 10.31Q118.51 10.65 118.47 11.13L118.47 11.13L118.47 11.13Q118.43 11.61 118.43 12.26L118.43 12.26L118.43 12.26Q118.43 12.91 118.47 13.38L118.47 13.38L118.47 13.38Q118.51 13.86 118.65 14.19L118.65 14.19L118.65 14.19Q118.78 14.53 119.02 14.75L119.02 14.75L119.02 14.75Q119.27 14.97 119.66 15.09L119.66 15.09L119.66 15.09Q120.05 15.22 120.60 15.26L120.60 15.26L120.60 15.26Q121.16 15.31 121.93 15.31Z"></path></g> <!----> <g data-v-5f19e91b="" id="1540fec0-e4ea-06a7-94af-d850485db00a" transform="matrix(0.9389433119032118,0,0,0.9389433119032118,-12.970497141266726,-6.246838861743321)" stroke="none" fill="black"><path d="M72.409 36.021h-8.468c.693-6.266-1.801-13.822-6.667-18.11-3.188-2.81-12.003-8.098-24.937 3.437-4.062 3.622-7.309 3.749-8.724 2.271-1.676-1.748-1.338-5.788 2.589-9.833a4 4 0 1 0-5.74-5.572c-7.498 7.725-6.995 16.382-2.624 20.942 4.075 4.25 11.786 5.331 19.823-1.837 4.124-3.679 9.956-7.256 14.323-3.406 3.392 2.989 4.583 8.76 3.88 12.108H42.91a8 8 0 0 0-8 8v39.458a8 8 0 0 0 8 8h29.499a8 8 0 0 0 8-8V44.021a8 8 0 0 0-8-8zm0 47.458H42.91V44.021h29.499v39.458z"></path><circle cx="51.659" cy="52.167" r="4"></circle><circle cx="63.659" cy="52.167" r="4"></circle></g></svg>